<svg id="skills" xmlns="http://www.w3.org/2000/svg" width="937.952" height="929.851" viewBox="0 0 937.952 929.851">
  <g id="daun">
    <g id="daun-kiri">
      <path id="Path_648" data-name="Path 648" d="M636.32,987.429s-43.685-94.124-10.955-138.65,109.078-96.712,52.758-234.622c-33-80.75-46.239-116.572-51.548-132.4a9.812,9.812,0,0,0-14.819-5.007C573.683,502.626,452.91,593.49,464.705,697.763,478.685,821.392,636.32,987.429,636.32,987.429Z" transform="translate(-463.898 -475.055)" fill="#91b3fa"/>
      <path id="Path_649" data-name="Path 649" d="M766.166,632.548c-27.858,60.453-49.23,155.25-46,239.36,1.546,13.408,1.983,43.215,16.9,89.958,12.165,39.115,31.352,77.692,47.684,101.618a3.293,3.293,0,0,0,4.6.874c2.621-1.747.907-4.637.941-4.536-25.1-42.139-46.945-98.695-55.782-154.477-10.216-68.72.773-144.463,17-211.7l1.747-6.687c13.072-50.943,19.188-53.934,15.256-55.379A1.882,1.882,0,0,0,766.166,632.548Z" transform="translate(-633.834 -578.901)" fill="#fff"/>
    </g>
    <g id="daun-kanan" transform="translate(183.131 62.239)">
      <path id="Path_650" data-name="Path 650" d="M1034.283,1143.1c-5.377,5.242,1.176-108.574-20.935-248.064-10.417-65.729-2.655-136.566,23.153-178.3,21.439-34.78,127.426-51.716,162.408-56.421a5.208,5.208,0,0,1,5.108,7.9c-11.492,18.449-35.15,60.789-33.7,95.267,1.915,45.4-29.034,84.749-62.134,103.466S1057.6,899,1058.78,961.3,1049.607,1128.247,1034.283,1143.1Z" transform="translate(-1008.868 -660.27)" fill="#bdd0fb"/>
      <path id="Path_651" data-name="Path 651" d="M1245.679,757.57c-41.534,15.458-80.448,49.364-91.671,92.814l-1.042,4.167c-2.386,9.678-12.064,76.18-12.366,128.8a1.21,1.21,0,0,0,1.21,1.176,1.176,1.176,0,0,0,1.176-1.143c2.251-30.378,6.922-69.526,11.19-99.031,4.4-32.125,7.7-54,32.529-81.993,27.824-30.479,59.781-43.08,59.681-43.047a.942.942,0,0,0-.706-1.747Z" transform="translate(-1096.333 -724.83)" fill="#fff"/>
    </g>
  </g>
  <g id="laptop-bg" transform="translate(2.555 196.786)">
    <path id="Path_652" data-name="Path 652" d="M575.5,1578.408a15.29,15.29,0,0,0,15.223,15.223h823.8a15.29,15.29,0,0,0,15.223-15.223L1436.6,1105c0-8.367-9.846-24.7-27.925-23.489L603.6,1060.673a38.409,38.409,0,0,0-39.417,39.283Z" transform="translate(-533.029 -1060.66)" fill="#09005d"/>
    <path id="Path_653" data-name="Path 653" d="M619.977,1599.453a14.45,14.45,0,0,0,14.382,14.416h789.725a14.45,14.45,0,0,0,14.416-14.416l6.452-429.76c-.773-25.841-23.422-35.15-37.166-34.612l-771.612-20.7A26.984,26.984,0,0,0,608.485,1142Z" transform="translate(-562.447 -1096.323)" fill="#7d97f4"/>
    <rect id="Rectangle_139" data-name="Rectangle 139" width="935.397" height="41.595" rx="5.7" transform="translate(935.397 572.288) rotate(180)" fill="#09005d"/>
    <g id="Group_66" data-name="Group 66" transform="translate(102.553 39.767)">
      <path id="Path_654" data-name="Path 654" d="M997.176,1268.631l-209.52-1.445a2.823,2.823,0,0,1-2.756-2.823l.1-13.408a2.789,2.789,0,0,1,2.789-2.755l209.52,1.479a2.722,2.722,0,0,1,2.755,2.789l-.1,13.408a2.756,2.756,0,0,1-2.789,2.755Z" transform="translate(-782.138 -1224.946)" fill="#bdd0fb" opacity="0.53"/>
      <path id="Path_655" data-name="Path 655" d="M1673.786,1274.656l-70.131-.5a2.655,2.655,0,0,1-2.655-2.688l.1-13.643a2.655,2.655,0,0,1,2.688-2.621l70.131.47a2.655,2.655,0,0,1,2.655,2.688l-.1,13.643A2.688,2.688,0,0,1,1673.786,1274.656Z" transform="translate(-1323.996 -1229.594)" fill="#bdd0fb" opacity="0.53"/>
      <path id="Path_656" data-name="Path 656" d="M2016.664,1277.027l-140.565-.974a4.2,4.2,0,0,1-4.2-4.268l.067-10.484a4.234,4.234,0,0,1,4.268-4.2l140.565.974a4.234,4.234,0,0,1,4.2,4.268l-.067,10.484a4.2,4.2,0,0,1-4.268,4.2Z" transform="translate(-1503.863 -1230.855)" fill="#bdd0fb" opacity="0.53"/>
      <rect id="Rectangle_140" data-name="Rectangle 140" width="18.953" height="57.658" rx="9.476" transform="matrix(0.007, -1, 1, 0.007, 2.206, 75.516)" fill="#bdd0fb" opacity="0.53"/>
      <path id="Path_657" data-name="Path 657" d="M1113.637,1368.728l-150.848-1.042a2.823,2.823,0,0,1-2.789-2.823l.1-13.375a2.823,2.823,0,0,1,2.823-2.789l150.848,1.075a2.789,2.789,0,0,1,2.755,2.789l-.1,13.408A2.789,2.789,0,0,1,1113.637,1368.728Z" transform="translate(-898.398 -1291.674)" fill="#bdd0fb" opacity="0.53"/>
      <path id="Path_658" data-name="Path 658" d="M1674.885,1373.956l-70.131-.5a2.655,2.655,0,0,1-2.655-2.688l.1-13.643a2.655,2.655,0,0,1,2.688-2.621l70.131.47a2.655,2.655,0,0,1,2.655,2.688l-.1,13.643a2.688,2.688,0,0,1-2.688,2.655Z" transform="translate(-1324.727 -1295.525)" fill="#bdd0fb" opacity="0.53"/>
      <path id="Path_659" data-name="Path 659" d="M2242.156,1377.931l-209.856-1.479a4.2,4.2,0,0,1-4.2-4.268l.067-10.484a4.234,4.234,0,0,1,4.268-4.2l209.856,1.445a4.3,4.3,0,0,1,4.234,4.3l-.1,10.451a4.234,4.234,0,0,1-4.268,4.234Z" transform="translate(-1607.574 -1297.517)" fill="#bdd0fb" opacity="0.53"/>
      <rect id="Rectangle_141" data-name="Rectangle 141" width="18.953" height="57.658" rx="9.476" transform="matrix(0.007, -1, 1, 0.007, 1.9, 108.848)" fill="#bdd0fb" opacity="0.53"/>
      <path id="Path_660" data-name="Path 660" d="M1112.737,1467.928l-150.848-1.075a2.789,2.789,0,0,1-2.789-2.789l.1-13.408a2.756,2.756,0,0,1,2.789-2.755l150.881,1.042a2.823,2.823,0,0,1,2.755,2.823l-.1,13.374A2.789,2.789,0,0,1,1112.737,1467.928Z" transform="translate(-897.8 -1357.539)" fill="#bdd0fb" opacity="0.53"/>
      <path id="Path_661" data-name="Path 661" d="M1673.986,1473.057l-70.131-.5a2.655,2.655,0,0,1-2.655-2.688l.1-13.61a2.688,2.688,0,0,1,2.688-2.655l70.131.5a2.655,2.655,0,0,1,2.655,2.688l-.1,13.609a2.655,2.655,0,0,1-2.688,2.655Z" transform="translate(-1324.129 -1361.324)" fill="#bdd0fb" opacity="0.53"/>
      <path id="Path_662" data-name="Path 662" d="M2387.156,1478.1l-276.022-1.949a4.234,4.234,0,0,1-4.234-4.268l.067-10.484a4.234,4.234,0,0,1,4.3-4.2l276.022,1.915a4.268,4.268,0,0,1,4.2,4.268l-.067,10.484A4.3,4.3,0,0,1,2387.156,1478.1Z" transform="translate(-1659.894 -1363.713)" fill="#bdd0fb" opacity="0.53"/>
      <rect id="Rectangle_142" data-name="Rectangle 142" width="18.953" height="57.658" rx="9.476" transform="translate(3.007 143.72) rotate(-89.427)" fill="#bdd0fb" opacity="0.53"/>
      <path id="Path_663" data-name="Path 663" d="M1114.5,1567.226l-150.848-1.075a2.722,2.722,0,0,1-2.756-2.789l.1-13.408a2.722,2.722,0,0,1,2.789-2.755l150.848,1.042a2.789,2.789,0,0,1,2.755,2.823l-.1,13.374A2.789,2.789,0,0,1,1114.5,1567.226Z" transform="translate(-898.994 -1423.469)" fill="#bdd0fb" opacity="0.53"/>
      <path id="Path_664" data-name="Path 664" d="M1675.152,1572.357l-70.131-.5a2.655,2.655,0,0,1-2.621-2.688l.067-13.609a2.722,2.722,0,0,1,2.688-2.655l70.131.5a2.655,2.655,0,0,1,2.655,2.688l-.1,13.609a2.654,2.654,0,0,1-2.688,2.655Z" transform="translate(-1324.926 -1427.255)" fill="#bdd0fb" opacity="0.53"/>
      <path id="Path_665" data-name="Path 665" d="M2390.922,1577.4l-276.022-1.949a4.2,4.2,0,0,1-4.2-4.268l.067-10.484a4.2,4.2,0,0,1,4.268-4.2l276.022,1.916a4.3,4.3,0,0,1,4.234,4.3l-.1,10.451a4.234,4.234,0,0,1-4.268,4.234Z" transform="translate(-1662.417 -1429.644)" fill="#bdd0fb" opacity="0.53"/>
      <rect id="Rectangle_143" data-name="Rectangle 143" width="18.953" height="57.658" rx="9.476" transform="matrix(0.007, -1, 1, 0.007, 1.73, 176.833)" fill="#bdd0fb" opacity="0.53"/>
      <path id="Path_666" data-name="Path 666" d="M1112.837,1670.228l-150.848-1.075a2.789,2.789,0,0,1-2.789-2.789l.1-13.408a2.789,2.789,0,0,1,2.823-2.756l150.848,1.042a2.823,2.823,0,0,1,2.755,2.823l-.1,13.408A2.789,2.789,0,0,1,1112.837,1670.228Z" transform="translate(-897.867 -1491.858)" fill="#bdd0fb" opacity="0.53"/>
      <path id="Path_667" data-name="Path 667" d="M1673.752,1675.357l-70.131-.47A2.688,2.688,0,0,1,1601,1672.2l.067-13.643a2.688,2.688,0,0,1,2.688-2.655l70.131.5a2.655,2.655,0,0,1,2.655,2.688l-.1,13.609a2.655,2.655,0,0,1-2.688,2.655Z" transform="translate(-1323.997 -1495.643)" fill="#bdd0fb" opacity="0.53"/>
      <path id="Path_668" data-name="Path 668" d="M2388.521,1680.4l-276.022-1.949a4.2,4.2,0,0,1-4.2-4.268l.067-10.484a4.234,4.234,0,0,1,4.268-4.2l276.022,1.949a4.234,4.234,0,0,1,4.234,4.268l-.1,10.451a4.234,4.234,0,0,1-4.268,4.234Z" transform="translate(-1660.823 -1498.033)" fill="#bdd0fb" opacity="0.53"/>
      <rect id="Rectangle_144" data-name="Rectangle 144" width="18.953" height="57.658" rx="9.476" transform="matrix(0.007, -1, 1, 0.007, 1.966, 210.166)" fill="#bdd0fb" opacity="0.53"/>
      <path id="Path_669" data-name="Path 669" d="M1114.6,1769.528l-150.848-1.075a2.755,2.755,0,0,1-2.756-2.789l.1-13.408a2.789,2.789,0,0,1,2.789-2.755l150.848,1.042a2.789,2.789,0,0,1,2.755,2.823l-.067,13.408A2.823,2.823,0,0,1,1114.6,1769.528Z" transform="translate(-899.061 -1557.79)" fill="#bdd0fb" opacity="0.53"/>
      <path id="Path_670" data-name="Path 670" d="M1674.852,1774.656l-70.1-.47a2.688,2.688,0,0,1-2.655-2.688l.067-13.643a2.722,2.722,0,0,1,2.688-2.655l70.131.5a2.655,2.655,0,0,1,2.655,2.688l-.1,13.609a2.654,2.654,0,0,1-2.688,2.655Z" transform="translate(-1324.727 -1561.574)" fill="#bdd0fb" opacity="0.53"/>
      <path id="Path_671" data-name="Path 671" d="M2038.434,1777.228l-165.835-1.142a4.234,4.234,0,0,1-4.2-4.3l.067-10.451a4.234,4.234,0,0,1,4.268-4.234l165.835,1.176a4.2,4.2,0,0,1,4.2,4.268l-.067,10.484a4.2,4.2,0,0,1-4.268,4.2Z" transform="translate(-1501.539 -1562.836)" fill="#bdd0fb" opacity="0.53"/>
      <path id="Path_672" data-name="Path 672" d="M995.817,1867.831l-210.663-1.479a2.722,2.722,0,0,1-2.755-2.789l.067-13.408a2.789,2.789,0,0,1,2.823-2.756l210.663,1.479a2.789,2.789,0,0,1,2.789,2.789l-.1,13.408A2.789,2.789,0,0,1,995.817,1867.831Z" transform="translate(-780.477 -1622.791)" fill="#bdd0fb" opacity="0.53"/>
      <path id="Path_673" data-name="Path 673" d="M1673.986,1873.856l-70.131-.5a2.655,2.655,0,0,1-2.655-2.688l.1-13.643a2.655,2.655,0,0,1,2.688-2.621l70.131.471a2.655,2.655,0,0,1,2.655,2.688l-.1,13.643A2.688,2.688,0,0,1,1673.986,1873.856Z" transform="translate(-1324.129 -1627.439)" fill="#bdd0fb" opacity="0.53"/>
      <path id="Path_674" data-name="Path 674" d="M2197.647,1877.531l-208.848-1.479a4.2,4.2,0,0,1-4.2-4.268l.067-10.484a4.234,4.234,0,0,1,4.268-4.2l208.848,1.445a4.234,4.234,0,0,1,4.2,4.268l-.067,10.484a4.234,4.234,0,0,1-4.268,4.234Z" transform="translate(-1578.692 -1629.232)" fill="#bdd0fb" opacity="0.53"/>
      <rect id="Rectangle_145" data-name="Rectangle 145" width="18.953" height="55.352" rx="9.476" transform="matrix(0.007, -1, 1, 0.007, 2.058, 276.872)" fill="#bdd0fb" opacity="0.53"/>
      <path id="Path_675" data-name="Path 675" d="M1115.437,1967.928l-150.881-1.042a2.789,2.789,0,0,1-2.755-2.823l.1-13.374a2.789,2.789,0,0,1,2.789-2.789l150.848,1.075a2.789,2.789,0,0,1,2.789,2.789l-.1,13.408a2.756,2.756,0,0,1-2.789,2.755Z" transform="translate(-899.592 -1689.52)" fill="#bdd0fb" opacity="0.53"/>
      <path id="Path_676" data-name="Path 676" d="M1675.086,1973.156l-70.131-.5a2.655,2.655,0,0,1-2.655-2.688l.1-13.643a2.655,2.655,0,0,1,2.688-2.621l70.131.47a2.655,2.655,0,0,1,2.655,2.688l-.1,13.643a2.655,2.655,0,0,1-2.688,2.655Z" transform="translate(-1324.86 -1693.37)" fill="#bdd0fb" opacity="0.53"/>
      <path id="Path_677" data-name="Path 677" d="M2372.9,1978.035l-285.7-1.983a4.268,4.268,0,0,1-4.2-4.268l.067-10.484a4.234,4.234,0,0,1,4.268-4.2l285.7,1.983a4.3,4.3,0,0,1,4.234,4.268l-.1,10.484a4.2,4.2,0,0,1-4.268,4.2Z" transform="translate(-1644.026 -1695.628)" fill="#bdd0fb" opacity="0.53"/>
      <rect id="Rectangle_146" data-name="Rectangle 146" width="18.953" height="57.658" rx="9.476" transform="matrix(0.007, -1, 1, 0.007, 0, 376.422)" fill="#bdd0fb" opacity="0.53"/>
      <path id="Path_678" data-name="Path 678" d="M1109.037,2264.228l-150.848-1.075a2.789,2.789,0,0,1-2.789-2.789l.1-13.408a2.823,2.823,0,0,1,2.823-2.755l150.848,1.075a2.789,2.789,0,0,1,2.755,2.789l-.1,13.408A2.789,2.789,0,0,1,1109.037,2264.228Z" transform="translate(-895.343 -1886.252)" fill="#bdd0fb" opacity="0.53"/>
      <path id="Path_679" data-name="Path 679" d="M1669.086,2269.356l-70.131-.47a2.722,2.722,0,0,1-2.655-2.688l.1-13.643a2.655,2.655,0,0,1,2.688-2.655l70.131.5a2.655,2.655,0,0,1,2.655,2.688l-.1,13.61a2.655,2.655,0,0,1-2.688,2.655Z" transform="translate(-1320.876 -1890.036)" fill="#bdd0fb" opacity="0.53"/>
      <path id="Path_680" data-name="Path 680" d="M2032.635,2271.929l-165.8-1.143a4.3,4.3,0,0,1-4.234-4.3l.067-10.451a4.3,4.3,0,0,1,4.3-4.234l165.8,1.176a4.234,4.234,0,0,1,4.234,4.268l-.1,10.484a4.2,4.2,0,0,1-4.268,4.2Z" transform="translate(-1497.689 -1891.298)" fill="#bdd0fb" opacity="0.53"/>
      <path id="Path_681" data-name="Path 681" d="M990.252,2362.531l-210.7-1.479a2.789,2.789,0,0,1-2.755-2.789l.1-13.408a2.789,2.789,0,0,1,2.789-2.756l210.7,1.479a2.789,2.789,0,0,1,2.755,2.789l-.1,13.408a2.722,2.722,0,0,1-2.789,2.756Z" transform="translate(-776.76 -1951.253)" fill="#bdd0fb" opacity="0.53"/>
      <path id="Path_682" data-name="Path 682" d="M1668.186,2368.556l-70.131-.5a2.655,2.655,0,0,1-2.655-2.688l.1-13.61a2.655,2.655,0,0,1,2.688-2.655l70.131.47a2.688,2.688,0,0,1,2.655,2.688l-.1,13.643a2.655,2.655,0,0,1-2.688,2.655Z" transform="translate(-1320.278 -1955.901)" fill="#bdd0fb" opacity="0.53"/>
      <path id="Path_683" data-name="Path 683" d="M2191.547,2372.23l-208.848-1.479a4.2,4.2,0,0,1-4.2-4.268l.067-10.484a4.2,4.2,0,0,1,4.268-4.2l208.848,1.445a4.268,4.268,0,0,1,4.2,4.268l-.067,10.484a4.3,4.3,0,0,1-4.268,4.234Z" transform="translate(-1574.641 -1957.693)" fill="#bdd0fb" opacity="0.53"/>
      <rect id="Rectangle_147" data-name="Rectangle 147" width="18.953" height="55.352" rx="9.476" transform="matrix(0.007, -1, 1, 0.007, 0.126, 443.128)" fill="#bdd0fb" opacity="0.53"/>
      <path id="Path_684" data-name="Path 684" d="M1109.9,2462.692l-150.848-1.042a2.756,2.756,0,0,1-2.755-2.789l.1-13.408a2.722,2.722,0,0,1,2.789-2.755l150.848,1.042a2.756,2.756,0,0,1,2.755,2.789l-.1,13.408a2.722,2.722,0,0,1-2.789,2.755Z" transform="translate(-895.941 -2018.046)" fill="#bdd0fb" opacity="0.53"/>
      <path id="Path_685" data-name="Path 685" d="M1669.286,2467.856l-70.131-.5a2.655,2.655,0,0,1-2.655-2.688l.1-13.61a2.655,2.655,0,0,1,2.688-2.655l70.131.47a2.688,2.688,0,0,1,2.655,2.688l-.1,13.643a2.655,2.655,0,0,1-2.688,2.655Z" transform="translate(-1321.009 -2021.832)" fill="#bdd0fb" opacity="0.53"/>
      <path id="Path_686" data-name="Path 686" d="M2366.8,2472.769l-285.7-2.016a4.234,4.234,0,0,1-4.2-4.268l.067-10.484a4.234,4.234,0,0,1,4.268-4.2l285.7,1.982a4.234,4.234,0,0,1,4.2,4.268l-.067,10.484a4.234,4.234,0,0,1-4.268,4.234Z" transform="translate(-1639.976 -2024.09)" fill="#bdd0fb" opacity="0.53"/>
      <rect id="Rectangle_148" data-name="Rectangle 148" width="18.953" height="55.352" rx="9.476" transform="matrix(0.007, -1, 1, 0.007, 1.144, 310.78)" fill="#bdd0fb" opacity="0.53"/>
      <path id="Path_687" data-name="Path 687" d="M1111.2,2068.928l-150.848-1.075a2.722,2.722,0,0,1-2.755-2.789l.067-13.408a2.823,2.823,0,0,1,2.823-2.756l150.848,1.042a2.789,2.789,0,0,1,2.756,2.823l-.1,13.408A2.789,2.789,0,0,1,1111.2,2068.928Z" transform="translate(-896.803 -1756.58)" fill="#bdd0fb" opacity="0.53"/>
      <path id="Path_688" data-name="Path 688" d="M1671.786,2074.056l-70.131-.47A2.688,2.688,0,0,1,1599,2070.9l.1-13.643a2.655,2.655,0,0,1,2.688-2.655l70.131.5a2.655,2.655,0,0,1,2.621,2.688l-.067,13.609A2.722,2.722,0,0,1,1671.786,2074.056Z" transform="translate(-1322.669 -1760.364)" fill="#bdd0fb" opacity="0.53"/>
      <path id="Path_689" data-name="Path 689" d="M2365.5,2078.969l-285.7-2.016a4.234,4.234,0,0,1-4.2-4.268l.067-10.485a4.268,4.268,0,0,1,4.268-4.2l285.7,1.983a4.3,4.3,0,0,1,4.234,4.3l-.1,10.451a4.234,4.234,0,0,1-4.268,4.234Z" transform="translate(-1639.113 -1762.622)" fill="#bdd0fb" opacity="0.53"/>
      <rect id="Rectangle_149" data-name="Rectangle 149" width="18.953" height="55.352" rx="9.476" transform="matrix(0.007, -1, 1, 0.007, 1.38, 344.18)" fill="#bdd0fb" opacity="0.53"/>
      <path id="Path_690" data-name="Path 690" d="M1112.9,2168.228l-150.848-1.075a2.789,2.789,0,0,1-2.756-2.789l.1-13.408a2.789,2.789,0,0,1,2.789-2.755l150.848,1.075a2.789,2.789,0,0,1,2.789,2.789l-.1,13.408A2.823,2.823,0,0,1,1112.9,2168.228Z" transform="translate(-897.933 -1822.512)" fill="#bdd0fb" opacity="0.53"/>
      <path id="Path_691" data-name="Path 691" d="M1672.886,2173.356l-70.131-.47a2.722,2.722,0,0,1-2.655-2.688l.1-13.643a2.655,2.655,0,0,1,2.688-2.655l70.131.5a2.688,2.688,0,0,1,2.655,2.688l-.1,13.61A2.688,2.688,0,0,1,1672.886,2173.356Z" transform="translate(-1323.399 -1826.296)" fill="#bdd0fb" opacity="0.53"/>
      <path id="Path_692" data-name="Path 692" d="M2369.4,2178.269l-285.666-2.016a4.235,4.235,0,0,1-4.234-4.268l.067-10.451a4.3,4.3,0,0,1,4.3-4.234l285.667,2.016a4.234,4.234,0,0,1,4.234,4.268l-.1,10.484a4.234,4.234,0,0,1-4.268,4.2Z" transform="translate(-1641.702 -1828.553)" fill="#bdd0fb" opacity="0.53"/>
      <path id="Path_693" data-name="Path 693" d="M1503.276,1646.363h-3.831a1.546,1.546,0,0,1-1.546-1.579l3.226-464.238A1.579,1.579,0,0,1,1502.7,1179h3.864a1.579,1.579,0,0,1,1.546,1.546l-3.26,464.271A1.58,1.58,0,0,1,1503.276,1646.363Z" transform="translate(-1255.542 -1179)" fill="#bdd0fb" opacity="0.53"/>
    </g>
  </g>
  <g id="bulet">
    <g id="bulet-tag" transform="translate(664.483 425.978)">
      <circle id="Ellipse_24" data-name="Ellipse 24" cx="81.086" cy="81.086" r="81.086" fill="#ff928e"/>
      <g id="Group_68" data-name="Group 68" transform="translate(27.488 51.582)">
        <path id="Path_694" data-name="Path 694" d="M2554.956,1957.488l-31.856-16.2v-5.242l31.856-18.448v8.905l-22.044,11.761,22.044,10.384Z" transform="translate(-2523.1 -1910.409)" fill="#fff"/>
        <path id="Path_695" data-name="Path 695" d="M2664.953,1896.2l-18.146,54.774-9.107-.1,18.012-54.573Z" transform="translate(-2599.19 -1896.2)" fill="#fff"/>
        <path id="Path_696" data-name="Path 696" d="M2738.8,1947.888l23.287-10.619-23.287-11.929V1916.3l33.973,18.616v5.478l-33.973,16.533Z" transform="translate(-2666.316 -1909.546)" fill="#fff"/>
      </g>
    </g>
    <g id="bulet-js" transform="translate(475.798 1.863)">
      <circle id="Ellipse_25" data-name="Ellipse 25" cx="81.086" cy="81.086" r="81.086" fill="#0050d9"/>
      <g id="Group_70" data-name="Group 70" transform="translate(42.005 42.912)">
        <path id="Path_697" data-name="Path 697" d="M2011.285,678.834a24.258,24.258,0,0,1-6.486-.941v-9.51a22.142,22.142,0,0,0,5.175.807c2.419,0,4.167-.739,5.209-2.319s1.579-4,1.579-7.359V608.569l11.19-.269v51.212c0,6.385-1.445,11.224-4.234,14.517S2016.763,678.935,2011.285,678.834Z" transform="translate(-2004.8 -608.3)" fill="#dae3fe"/>
        <path id="Path_698" data-name="Path 698" d="M2153.1,657.331q0,8.939-6.418,13.979t-17.541,4.873a39.911,39.911,0,0,1-17.944-4.167V659.381a75.557,75.557,0,0,0,10.82,4.167,31.555,31.555,0,0,0,8.166,1.243,11.66,11.66,0,0,0,6.922-1.68,6.507,6.507,0,0,0,1.344-8.569,11.429,11.429,0,0,0-3.125-2.89,82.7,82.7,0,0,0-8.334-4.4,37.436,37.436,0,0,1-8.737-5.343,19.655,19.655,0,0,1-4.6-5.914,16.788,16.788,0,0,1-1.747-7.9c0-5.713,1.882-10.216,5.679-13.542s9.073-5.108,15.861-5.276a37.734,37.734,0,0,1,9.644,1.008,66.327,66.327,0,0,1,9.678,3.192L2148.3,624.4a62,62,0,0,0-8.636-2.856,26.747,26.747,0,0,0-6.654-.739,8.672,8.672,0,0,0-5.914,1.915,6.583,6.583,0,0,0-1.243,7.931,9.778,9.778,0,0,0,2.655,2.587,82.6,82.6,0,0,0,8.67,4.5c6.049,2.89,10.249,5.78,12.5,8.737A17.445,17.445,0,0,1,2153.1,657.331Z" transform="translate(-2075.445 -608.941)" fill="#dae3fe"/>
      </g>
    </g>
    <g id="bulet-html" transform="translate(652.958 43.465)">
      <circle id="Ellipse_26" data-name="Ellipse 26" cx="80.246" cy="80.246" r="80.246" fill="#ff928e"/>
      <g id="Group_72" data-name="Group 72" transform="translate(25.707 66.636)">
        <path id="Path_699" data-name="Path 699" d="M2506.048,833.112l-5.847-.336V820.107l-10.921-.538v12.6l-5.78-.3V802.7l5.78.235v11.459l10.921.5V803.372l5.847.269Z" transform="translate(-2483.5 -802.7)" fill="#fff"/>
        <path id="Path_700" data-name="Path 700" d="M2582.81,836.544l-5.982-.336v-24.43l-7.628-.336V806.2l21.338.907v5.276l-7.729-.37Z" transform="translate(-2540.402 -805.024)" fill="#fff"/>
        <path id="Path_701" data-name="Path 701" d="M2664,840.313l-6.956-23.926h-.168c.235,4.805.37,8.031.37,9.611v13.979l-5.444-.3V809.7l8.3.336,6.855,23.355h.134l7.326-22.75,8.5.336v30.378l-5.847-.3V826.7c0-.672.034-1.479.034-2.352s.134-3.226.269-7.023h-.168l-7.561,23.287Z" transform="translate(-2595.245 -807.348)" fill="#fff"/>
        <path id="Path_702" data-name="Path 702" d="M2772.7,845.212V814.7l6.351.269v25.236l12.2.638v5.377Z" transform="translate(-2675.518 -810.668)" fill="#fff"/>
      </g>
    </g>
    <g id="bulet-css" transform="translate(685.429 210.224)">
      <circle id="Ellipse_27" data-name="Ellipse 27" cx="76.214" cy="76.214" r="76.214" transform="translate(0 107.783) rotate(-45)" fill="#0050d9"/>
      <g id="Group_74" data-name="Group 74" transform="translate(56.242 84.967)">
        <path id="Path_703" data-name="Path 703" d="M2688.944,1361.094a8,8,0,0,0-7.191,3.8c-1.68,2.554-2.487,6.082-2.487,10.652.034,9.476,3.226,14.349,9.712,14.618a28.983,28.983,0,0,0,10.047-1.882v7.7a24.667,24.667,0,0,1-10.787,1.714c-5.646-.235-9.913-2.319-12.837-6.183s-4.368-9.275-4.4-16.231a29.04,29.04,0,0,1,2.117-11.526,16.409,16.409,0,0,1,6.183-7.594,17.393,17.393,0,0,1,9.611-2.655,25.064,25.064,0,0,1,11.56,3.092l-2.722,7.494a43.871,43.871,0,0,0-4.436-2.083A13.207,13.207,0,0,0,2688.944,1361.094Z" transform="translate(-2671 -1353.5)" fill="#dae3fe"/>
        <path id="Path_704" data-name="Path 704" d="M2807.851,1386.934c0,4.066-1.378,7.191-4.133,9.409s-6.519,3.192-11.324,2.957a24.62,24.62,0,0,1-11.594-3.159v-8.636a49.806,49.806,0,0,0,6.956,3.058,20.67,20.67,0,0,0,5.309,1.008,7.179,7.179,0,0,0,4.436-1.008,4.013,4.013,0,0,0,1.579-3.495,4.132,4.132,0,0,0-.706-2.352,8.8,8.8,0,0,0-2.016-2.016,48.472,48.472,0,0,0-5.377-3.159,25.986,25.986,0,0,1-5.646-3.8,14.462,14.462,0,0,1-2.991-4.133,12.608,12.608,0,0,1-1.109-5.444c0-3.865,1.21-6.922,3.629-9.14s5.881-3.327,10.249-3.327a23.787,23.787,0,0,1,6.25.874,41.888,41.888,0,0,1,6.284,2.352l-2.923,7.393a40.211,40.211,0,0,0-5.578-2.117,17.54,17.54,0,0,0-4.3-.638,5.515,5.515,0,0,0-3.831,1.21,4.671,4.671,0,0,0-.773,5.41,6.08,6.08,0,0,0,1.714,1.815,57.848,57.848,0,0,0,5.578,3.226c3.932,2.083,6.62,4.167,8.1,6.217A12.444,12.444,0,0,1,2807.851,1386.934Z" transform="translate(-2743.903 -1353.633)" fill="#dae3fe"/>
        <path id="Path_705" data-name="Path 705" d="M2914.6,1388.41c0,4.2-1.479,7.46-4.436,9.745s-7.023,3.293-12.165,3.024a26.892,26.892,0,0,1-12.4-3.293v-8.939a50.74,50.74,0,0,0,7.46,3.192,21.94,21.94,0,0,0,5.679,1.042,7.649,7.649,0,0,0,4.771-1.042,4.082,4.082,0,0,0,1.647-3.6,4.032,4.032,0,0,0-.706-2.42,8.238,8.238,0,0,0-2.184-2.117,57.475,57.475,0,0,0-5.746-3.293,27.6,27.6,0,0,1-6.049-3.932,14.648,14.648,0,0,1-3.192-4.268,12.435,12.435,0,0,1-1.176-5.612c0-4.032,1.277-7.191,3.9-9.476s6.284-3.428,10.989-3.428a25.715,25.715,0,0,1,6.687.874,45.774,45.774,0,0,1,6.721,2.453l-3.125,7.662a48.684,48.684,0,0,0-5.981-2.218,20,20,0,0,0-4.6-.638,5.983,5.983,0,0,0-4.1,1.243,4.235,4.235,0,0,0-1.411,3.327,4.1,4.1,0,0,0,.571,2.251,5.948,5.948,0,0,0,1.814,1.882,50.828,50.828,0,0,0,5.982,3.36c4.2,2.151,7.124,4.3,8.7,6.452A12.674,12.674,0,0,1,2914.6,1388.41Z" transform="translate(-2813.486 -1353.832)" fill="#dae3fe"/>
      </g>
    </g>
  </g>
  <path id="sayap" d="M845.064,1785.122a5.041,5.041,0,0,0,1.21,7.931c13.374,7.326,46.978,20.666,75.306-10.652,36.292-40.089,124.67-227.129,135.558-275.149s52.12-122.016,74.769-130.753-47.986-3.764-67.678-3.428-33.839-9.409-22.111-13.912c0,0-59.848-23.321-104.71,46.1C910.323,1447.235,823.02,1641.2,750.671,1662.5c-2.688.773,12.5,11.089,13.677,13.609,6.99,14.987,32.6,59.344,99.7,82.565C864.05,1758.675,855.347,1774.671,845.064,1785.122Z" transform="translate(-654.093 -1059.565)" fill="#0e0281"/>
  <g id="badan">
    <path id="Path_707" data-name="Path 707" d="M1664.163,3144.6c-14.517,1.243-39.72,3.293-59.58,4.167-11.929.538-18.818-.639-22.783-2.218,0,.437.034.84.034,1.243a4.167,4.167,0,0,0,3.9,3.9,702.178,702.178,0,0,0,78.028.067,2.924,2.924,0,0,0,2.386-4.4A24.643,24.643,0,0,0,1664.163,3144.6Z" transform="translate(-1206.142 -2247.53)" fill="#4f52ff"/>
    <path id="Path_708" data-name="Path 708" d="M1604.573,3090.8c19.86-.874,45.063-2.924,59.58-4.167-14.282-17.508-59.58-29.336-59.58-29.336h-12.8a53.662,53.662,0,0,0-9.98,31.285C1585.755,3090.165,1592.644,3091.341,1604.573,3090.8Z" transform="translate(-1206.131 -2189.566)" fill="#09005d"/>
    <path id="Path_709" data-name="Path 709" d="M1605.1,2995.2l1.21,23.691a5.41,5.41,0,0,0,4.6,5.074,20.934,20.934,0,0,0,9.611-.773,6.351,6.351,0,0,0,4.3-4.94l4.133-23.052Z" transform="translate(-1221.612 -2148.334)" fill="#ff928e"/>
    <g id="Group_76" data-name="Group 76" transform="translate(224.391 854.155)">
      <path id="Path_710" data-name="Path 710" d="M1142.219,3206.379c-6.284-1.109-9.14-5.343-10.35-9.879v.134a11.238,11.238,0,0,0,5.511,12.064,28.818,28.818,0,0,0,15.256,3.091,14.18,14.18,0,0,0,11.459-6.822v-.067C1159.39,3207.925,1152.737,3208.295,1142.219,3206.379Z" transform="translate(-1131.651 -3136.144)" fill="#4f52ff"/>
      <path id="Path_711" data-name="Path 711" d="M1172.356,3016.894H1161.8c-16.1-.437-26.177,43.382-29.5,60.353,1.21,4.536,4.066,8.771,10.35,9.879,10.518,1.916,17.172,1.546,21.91-1.479,8.67-14.786,13-36.393,15.055-49.028C1181.966,3022.27,1172.356,3016.894,1172.356,3016.894Z" transform="translate(-1132.082 -3016.89)" fill="#09005d"/>
    </g>
    <path id="Path_712" data-name="Path 712" d="M1212.126,2951.4l-5.881,23.321a6.351,6.351,0,0,0,3.293,7.157c3.293,1.68,7.9,3.461,12.165,2.957a5.309,5.309,0,0,0,4.3-3.528l8.6-24.531Z" transform="translate(-956.669 -2119.252)" fill="#ff928e"/>
    <path id="Path_713" data-name="Path 713" d="M1421.2,2024.82s-52.355,327.369-51.481,329.15c0,0-14.483,6.586-30.243.84,0,0,4.738-174.975,15.827-242.082,0,0-89.353,156.426-117.748,234.354,0,0-14.819-1.781-27.051-9.846,0,0,96.208-281.533,121.915-319.035Z" transform="translate(-959.613 -1499.644)" fill="#bdd0fb"/>
    <path id="Path_714" data-name="Path 714" d="M1645.071,2221.075a1.209,1.209,0,0,1-.672-.2,1.277,1.277,0,0,1-.4-1.781l19.557-31.285a1.31,1.31,0,0,1,.84-.571l14.416-2.89a1.311,1.311,0,0,1,1.546,1.008,1.344,1.344,0,0,1-1.042,1.546l-13.845,2.789-19.289,30.781A1.277,1.277,0,0,1,1645.071,2221.075Z" transform="translate(-1247.301 -1609.94)" fill="#a8bde2"/>
    <path id="Path_715" data-name="Path 715" d="M1504.556,1358.4a40.893,40.893,0,0,0-10.989-2.184c-20.431-1.176-87.74-3.36-143.455,15.021a43.483,43.483,0,0,0-26.144,23.792c-15.055,34.578-39.451,113.346,28.294,153.1a166.171,166.171,0,0,1,16.332-30.916c-10.921-18.415-14.147-43.551,5.209-76.281,14.114,38.14,20.734,93.755,22.145,118.353a52.9,52.9,0,0,1-4.167,23.657l-.336.84a2.789,2.789,0,0,0,1.949,3.8c38.14,8.569,77.827,6.25,89.655,5.276a4.906,4.906,0,0,0,4.369-3.73c18.549-78.129,18.583-131.425,14.046-165.129C1518.8,1427.891,1542.931,1371.672,1504.556,1358.4Z" transform="translate(-1023.717 -1059.612)" fill="#0050d9"/>
    <path id="Path_716" data-name="Path 716" d="M1591.136,1222.3s-3.864,40.8-7.258,52.859a4.066,4.066,0,0,0,1.949,4.7c5.746,3.293,19.591,8.67,38.476-.6a8.569,8.569,0,0,0,4.772-8.065l-1.68-39.417Z" transform="translate(-1207.413 -971.197)" fill="#ff928e"/>
    <g id="Group_77" data-name="Group 77" transform="translate(349.202 167.985)">
      <path id="Path_717" data-name="Path 717" d="M1618.45,1067s12.333,28.362,13.173,43.215,4.032,24.531-13.173,27.522-31.688-5.578-39.518-20.4c0,0-12.333-22.817-9.543-32.159S1618.45,1067,1618.45,1067Z" transform="translate(-1546.831 -1036.069)" fill="#febbba"/>
      <path id="Path_718" data-name="Path 718" d="M1541.02,1045.571l1.008-.4a2.386,2.386,0,0,0,1.143-3.26c-2.419-4.671-7.158-15.424-1.042-17.944,7.863-3.226,39.048-9.577,45.769-20.633s.739-24.363-7.863-28.261a1.176,1.176,0,0,0-1.546.5l-.739,1.344a1.176,1.176,0,0,1-2.151-.2h0a1.143,1.143,0,0,0-2.083-.3c-2.083,3.293-7.662,8.67-22.582,11.425-21.238,3.9-35.25,12.5-35.62,27.152a1.176,1.176,0,0,1-1.814.975c-1.546-.941-4.066-1.411-7.427,1.411-5.813,4.906-3.428,17.608,9.342,28.059a1.176,1.176,0,0,1-.033,1.882c-2.319,1.512-5.78,5.108,3.159,9.88s16.163,4.536,18.818,4.1a1.142,1.142,0,0,0,.941-1.411l-2.823-12.87a1.176,1.176,0,0,1,1.143-1.445Z" transform="translate(-1503.071 -974.954)" fill="#09005d"/>
      <path id="Path_719" data-name="Path 719" d="M1587.028,1165.73s-4.7-18.079-12.8-13,4.2,20.263,10.72,20.935Z" transform="translate(-1548.542 -1092.391)" fill="#febbba"/>
    </g>
    <path id="Path_720" data-name="Path 720" d="M1500.407,1895.573l55.682-1.21s-48.558-13.71-51.582-9.98c0,0-30.076-19.793-46.575-47.583a166.171,166.171,0,0,0-16.331,30.916C1456.386,1876.419,1475.775,1891.474,1500.407,1895.573Z" transform="translate(-1113.054 -1379.201)" fill="#febbba"/>
    <path id="Path_721" data-name="Path 721" d="M1611.888,1983s-1.143,22.212,27.992,18.986c15.827-1.747,41.366-16.533,41.366-16.533S1614.644,1985.285,1611.888,1983Z" transform="translate(-1226.115 -1476.272)" fill="#febbba"/>
  </g>
  <g id="laptop" transform="translate(394.911 409.713)">
    <path id="Path_722" data-name="Path 722" d="M1644,1979.116h.269l114.152-.135a5.074,5.074,0,1,0,0-10.115l-114.152.135a5.042,5.042,0,1,0-.269,10.081Z" transform="translate(-1639.094 -1876.59)" fill="#09005d"/>
    <path id="Path_723" data-name="Path 723" d="M1992.518,1694.3h-95.065a18.112,18.112,0,0,0-16.4,10.283l-43.954,92.209h118.151a11.089,11.089,0,0,0,10.249-6.889l34.074-85.354A7.521,7.521,0,0,0,1992.518,1694.3Z" transform="translate(-1770.562 -1694.3)" fill="#09005d"/>
    <path id="Path_724" data-name="Path 724" d="M2098.465,1816.369c-2.083,6.317-.538,12.467,3.394,13.71s8.8-2.856,10.854-9.174.538-12.5-3.394-13.744S2100.515,1810.017,2098.465,1816.369Z" transform="translate(-1943.482 -1769.088)" fill="#53d8ff"/>
  </g>
  <g id="tanganKiri">
    <path id="Path_725" data-name="Path 725" d="M1966.909,1419.149c-44.323,1.848-65.628-30.579-85.018-49.566-25.573-25.068-52.691-14.853-52.691-14.853l20.6,67.208c40.022,46.81,89.79,35.351,120.067,24.833A56.186,56.186,0,0,0,1966.909,1419.149Z" transform="translate(-1370.406 -1057.758)" fill="#0050d9"/>
    <path id="Path_726" data-name="Path 726" d="M2303.116,1492.7l-15.323,6.25c-18.482,8.67-34.612,12.568-48.793,13.173a56.183,56.183,0,0,1,2.957,27.622,134.543,134.543,0,0,0,31.856-15.827C2308.694,1507.889,2303.116,1492.7,2303.116,1492.7Z" transform="translate(-1642.497 -1150.732)" fill="#febbba"/>
    <path id="Path_727" data-name="Path 727" d="M2431.849,1492.8a10.62,10.62,0,0,0-5.511-7.494l-28.093-14.987s-.034-3.8,6.889-5.645,6.183-9.476,6.183-9.476-9.543,3.192-23.523,8.3c-8.031,2.957-13,9.107-15.794,13.878l6.486,10.753c17.508,7.393,35.687,10.384,54.4,10.249Z" transform="translate(-1730.804 -1125.833)" fill="#febbba"/>
  </g>
</svg>
